<svg width="45" height="17" viewBox="0 0 27 17" fill="none" xmlns="http://www.w3.org/2000/svg">
<circle cx="22" cy="6" r="4.5" stroke="#EAE4D9"/>
<mask id="path-2-inside-1_739_2916" fill="white">
<path d="M0 0H22.75V4.875C22.75 11.1572 17.6572 16.25 11.375 16.25C5.09276 16.25 0 11.1572 0 4.875V0Z"/>
</mask>
<path d="M0 0H22.75V4.875C22.75 11.1572 17.6572 16.25 11.375 16.25C5.09276 16.25 0 11.1572 0 4.875V0Z" fill="#131213"/>
<path d="M0 0V-1H-1V0H0ZM22.75 0H23.75V-1H22.75V0ZM0 1H22.75V-1H0V1ZM21.75 0V4.875H23.75V0H21.75ZM1 4.875V0H-1V4.875H1ZM11.375 15.25C5.64505 15.25 1 10.605 1 4.875H-1C-1 11.7095 4.54048 17.25 11.375 17.25V15.25ZM21.75 4.875C21.75 10.605 17.105 15.25 11.375 15.25V17.25C18.2095 17.25 23.75 11.7095 23.75 4.875H21.75Z" fill="#EAE4D9" mask="url(#path-2-inside-1_739_2916)"/>
</svg>
