<svg width="19" height="13" viewBox="0 0 19 13" fill="none" xmlns="http://www.w3.org/2000/svg">
<path fill-rule="evenodd" clip-rule="evenodd" d="M9.4998 2.46094C7.36311 2.46094 5.62939 4.19465 5.62939 6.33135C5.62939 8.46805 7.36311 10.2018 9.4998 10.2018C11.6365 10.2018 13.3702 8.46805 13.3702 6.33135C13.3702 4.19465 11.6365 2.46094 9.4998 2.46094ZM7.03696 6.33135C7.03696 4.97191 8.14037 3.8685 9.4998 3.8685C10.8592 3.8685 11.9626 4.97191 11.9626 6.33135C11.9626 7.69078 10.8592 8.79419 9.4998 8.79419C8.14037 8.79419 7.03696 7.69078 7.03696 6.33135Z" fill="#EAE4D9"/>
<path fill-rule="evenodd" clip-rule="evenodd" d="M0.111422 6.601L0 6.33323L0.111422 6.06548C1.59551 2.50337 5.24646 0 9.5 0C13.7535 0 17.4039 2.50337 18.8886 6.06548L19 6.33323L18.8886 6.601C17.4045 10.1631 13.7535 12.6665 9.5 12.6665C5.24646 12.6665 1.59608 10.1631 0.111422 6.601ZM9.5 11.259C5.91257 11.259 2.86146 9.21381 1.53074 6.33328C2.86146 3.45268 5.91232 1.40759 9.5 1.40759C13.0877 1.40759 16.1385 3.45274 17.4693 6.33328C16.1385 9.21388 13.0877 11.259 9.5 11.259Z" fill="#EAE4D9"/>
</svg>
