<svg width="11" height="10" viewBox="0 0 11 10" fill="none" xmlns="http://www.w3.org/2000/svg">
<path d="M10.9433 7.88429L9.12747 9.86381C9.088 9.90681 9.04024 9.94109 8.98716 9.96452C8.93409 9.98796 8.87684 10 8.81898 10H0.210811C0.169737 10 0.129558 9.9878 0.0952101 9.96491C0.0608626 9.94201 0.033843 9.90942 0.0174711 9.87113C0.00109916 9.83284 -0.00391187 9.79052 0.00305366 9.74938C0.0100192 9.70823 0.0286579 9.67005 0.0566796 9.63952L1.87393 7.66C1.9133 7.61711 1.96091 7.5829 2.01381 7.55947C2.06671 7.53605 2.12379 7.52391 2.18149 7.52381H10.7892C10.8303 7.52381 10.8704 7.53601 10.9048 7.5589C10.9391 7.5818 10.9662 7.61439 10.9825 7.65268C10.9989 7.69097 11.0039 7.73329 10.9969 7.77443C10.99 7.81558 10.9713 7.85376 10.9433 7.88429ZM9.12747 3.8981C9.088 3.85509 9.04024 3.82081 8.98716 3.79738C8.93409 3.77395 8.87684 3.76187 8.81898 3.7619H0.210811C0.169737 3.76191 0.129558 3.7741 0.0952101 3.797C0.0608626 3.81989 0.033843 3.85249 0.0174711 3.89078C0.00109916 3.92907 -0.00391187 3.97138 0.00305366 4.01253C0.0100192 4.05368 0.0286579 4.09186 0.0566796 4.12238L1.87393 6.1019C1.9133 6.14479 1.96091 6.179 2.01381 6.20243C2.06671 6.22586 2.12379 6.238 2.18149 6.23809H10.7892C10.8303 6.23809 10.8704 6.2259 10.9048 6.203C10.9391 6.18011 10.9662 6.14751 10.9825 6.10922C10.9989 6.07093 11.0039 6.02861 10.9969 5.98747C10.99 5.94632 10.9713 5.90814 10.9433 5.87762L9.12747 3.8981ZM0.210811 2.47619H8.81898C8.87684 2.47622 8.93409 2.46415 8.98716 2.44072C9.04024 2.41729 9.088 2.383 9.12747 2.34L10.9433 0.360476C10.9713 0.329951 10.99 0.29177 10.9969 0.250625C11.0039 0.20948 10.9989 0.167163 10.9825 0.128873C10.9662 0.0905829 10.9391 0.0579882 10.9048 0.0350935C10.8704 0.0121988 10.8303 1.40994e-06 10.7892 0L2.18149 0C2.12379 9.98178e-05 2.06671 0.0122385 2.01381 0.0356646C1.96091 0.0590906 1.9133 0.0933054 1.87393 0.13619L0.0571481 2.11571C0.0291534 2.14621 0.0105229 2.18435 0.00354161 2.22545C-0.00343972 2.26655 0.00153155 2.30883 0.0178458 2.3471C0.03416 2.38537 0.0611078 2.41797 0.0953846 2.4409C0.129661 2.46383 0.169777 2.4761 0.210811 2.47619Z" fill="url(#paint0_linear_1295_6897)"/>
<defs>
<linearGradient id="paint0_linear_1295_6897" x1="0.928529" y1="10.2383" x2="10.1209" y2="0.0436737" gradientUnits="userSpaceOnUse">
<stop offset="0.08" stop-color="#9945FF"/>
<stop offset="0.3" stop-color="#8752F3"/>
<stop offset="0.5" stop-color="#5497D5"/>
<stop offset="0.6" stop-color="#43B4CA"/>
<stop offset="0.72" stop-color="#28E0B9"/>
<stop offset="0.97" stop-color="#19FB9B"/>
</linearGradient>
</defs>
</svg>
